@startuml
'https://plantuml.com/class-diagram

abstract class AbstractList
abstract AbstractCollection
interface List
interface Collection

List <|-- AbstractList
Collection <|-- AbstractCollection

Collection <|- List
AbstractCollection <|- AbstractList
AbstractList <|-- ArrayList

class StudentRepository {
List<Student> findAll()
size()
}

enum TimeUnit {
DAYS
HOURS
MINUTES
}

@enduml